<svg width="215" height="194" viewBox="0 0 215 194" fill="none" xmlns="http://www.w3.org/2000/svg">
<rect width="215" height="194" rx="20" fill="#F7F7F9"/>
<path d="M71.0108 98.9866C69.3539 98.9866 68.0108 100.33 68.0108 101.987V137.083C68.0108 138.74 69.3539 140.083 71.0108 140.083H81.871C83.5278 140.083 84.871 138.74 84.871 137.083V101.987C84.871 100.33 83.5278 98.9866 81.871 98.9866H71.0108ZM81.7097 111.105C81.7097 114.016 79.3519 116.374 76.4409 116.374C73.5298 116.374 71.172 114.016 71.172 111.105C71.172 108.194 73.5298 105.836 76.4409 105.836C79.3519 105.836 81.7097 108.194 81.7097 111.105Z" fill="#8EC6E6"/>
<path d="M43.2366 53.6748C37.7137 53.6748 33.2366 58.152 33.2366 63.6748L33.2366 130.083C33.2366 135.606 37.7137 140.083 43.2366 140.083H49.5806C55.1035 140.083 59.5807 135.606 59.5807 130.083L59.5807 94.7716C59.5807 92.4401 61.4643 90.5565 63.7957 90.5565H89.086C91.4175 90.5565 93.3011 92.4401 93.3011 94.7716L93.3011 130.083C93.3011 135.606 97.7782 140.083 103.301 140.083H109.645C115.168 140.083 119.645 135.606 119.645 130.083L119.645 63.6748C119.645 58.1519 115.168 53.6748 109.645 53.6748L43.2366 53.6748Z" fill="#89D6C6"/>
<path d="M132.129 98.9866C130.472 98.9866 129.129 100.33 129.129 101.987V137.083C129.129 138.74 130.472 140.083 132.129 140.083H142.989C144.646 140.083 145.989 138.74 145.989 137.083V101.987C145.989 100.33 144.646 98.9866 142.989 98.9866H132.129ZM142.828 111.105C142.828 114.016 140.47 116.374 137.559 116.374C134.648 116.374 132.29 114.016 132.29 111.105C132.29 108.194 134.648 105.836 137.559 105.836C140.47 105.836 142.828 108.194 142.828 111.105Z" fill="#89D6C6"/>
<path d="M104.355 53.6748C98.832 53.6748 94.3548 58.152 94.3548 63.6748L94.3548 130.083C94.3548 135.606 98.832 140.083 104.355 140.083H110.699C116.222 140.083 120.699 135.606 120.699 130.083L120.699 94.7716C120.699 92.4401 122.583 90.5565 124.914 90.5565L150.204 90.5565C152.536 90.5565 154.419 92.4401 154.419 94.7716L154.419 130.083C154.419 135.606 158.896 140.083 164.419 140.083H170.763C176.286 140.083 180.763 135.606 180.763 130.083L180.763 63.6748C180.763 58.1519 176.286 53.6748 170.763 53.6748L104.355 53.6748Z" fill="#8EC6E6"/>
</svg>
